STARTFONT 2.1
COMMENT
COMMENT Converted from OpenType font "Q:\font stuff\winfont\Typo Script HPLHS.ttf" by "otf2bdf 3.0".
COMMENT
FONT -FreeType-Typo Script-Medium-R-Normal--102-1020-72-72-P-395-ISO10646-1
SIZE 102 72 72
FONTBOUNDINGBOX 197 124 -20 -41
STARTPROPERTIES 19
FOUNDRY "FreeType"
FAMILY_NAME "Typo Script"
WEIGHT_NAME "Medium"
SLANT "R"
SETWIDTH_NAME "Normal"
ADD_STYLE_NAME ""
PIXEL_SIZE 102
POINT_SIZE 1020
RESOLUTION_X 72
RESOLUTION_Y 72
SPACING "P"
AVERAGE_WIDTH 395
CHARSET_REGISTRY "ISO10646"
CHARSET_ENCODING "1"
FONT_ASCENT 83
FONT_DESCENT 40
COPYRIGHT "©2002 by Andrew Leman.  Revived from the 1923 ATF Specimen Book exclusively for the HPLHS.  www.cthulhulives.org  www.ahleman.com"
_OTF_FONTFILE "Q:\font stuff\winfont\Typo Script HPLHS.ttf"
_OTF_PSNAME "TypoScriptHPLHS"
ENDPROPERTIES
CHARS 77
STARTCHAR 0020
ENCODING 32
SWIDTH 147 0
DWIDTH 15 0
BBX 0 0 0 0
BITMAP
ENDCHAR
STARTCHAR 0021
ENCODING 33
SWIDTH 264 0
DWIDTH 27 0
BBX 20 30 5 -2
BITMAP
0000F0
0001F0
0001E0
0003E0
0003C0
000780
000700
000F00
000E00
001C00
001C00
003800
003000
007000
006000
00C000
01C000
018000
030000
030000
060000
040000
000000
000000
000000
600000
F00000
F00000
F00000
E00000
ENDCHAR
STARTCHAR 0024
ENCODING 36
SWIDTH 274 0
DWIDTH 28 0
BBX 32 47 -2 -10
BITMAP
00000063
00000063
000000C7
000000C6
0000018C
0000018C
00000718
00003FF8
0000FE70
0001E478
0003C878
000798D8
000793D8
0007B798
0007E7F8
000FC3F0
000FC7C0
0007CE00
0007EC00
0007FC00
0003F800
0007F800
0007F000
000DF000
0009F800
0019F800
01F1F800
07F1F800
0EF37C00
0CF67800
18E67800
188C7800
198CF000
0F98F000
0F19E000
0737C000
07FF0000
0CF80000
0C600000
18C00000
38C00000
31800000
61000000
63000000
C6000000
C6000000
8C000000
ENDCHAR
STARTCHAR 0026
ENCODING 38
SWIDTH 323 0
DWIDTH 33 0
BBX 38 36 -2 -1
BITMAP
007E0000F8
03E70003F8
07C180077C
0F01800C78
1E01801878
3E01803000
7C01806000
7801806000
F80300C000
F003018000
F006018000
F006030000
E00E020040
E01C0601C0
601C0C0380
6038080700
7070180E00
30F0103C00
19E030F000
0FE063C000
07C07F0000
07FFF80000
0F8FC00000
0F01800000
1F03800000
3F03000000
3E07000000
7E06000000
7C0C000000
7C18000000
7838000000
7870000000
78E0000000
31C0000000
3F80000000
1E00000000
ENDCHAR
STARTCHAR 002C
ENCODING 44
SWIDTH 186 0
DWIDTH 19 0
BBX 8 10 5 -6
BITMAP
0E
1F
1F
0F
0E
0C
1C
78
E0
C0
ENDCHAR
STARTCHAR 002D
ENCODING 45
SWIDTH 196 0
DWIDTH 20 0
BBX 15 8 2 8
BITMAP
001E
01FE
1FFC
7F80
703E
07FC
7F80
F000
ENDCHAR
STARTCHAR 002E
ENCODING 46
SWIDTH 196 0
DWIDTH 20 0
BBX 5 5 6 -2
BITMAP
78
F8
F8
F8
70
ENDCHAR
STARTCHAR 0030
ENCODING 48
SWIDTH 196 0
DWIDTH 20 0
BBX 23 30 -1 -1
BITMAP
000078
0003FC
0007DE
001F0E
003E0E
007C0E
00F80E
01F00C
03F01C
07E01C
0FC018
0FC038
1F8030
3F0070
3F0060
3E0060
7E00C0
7C01C0
FC0180
F80300
F80300
F00600
F00C00
F01800
E03800
E07000
60C000
618000
7F0000
3E0000
ENDCHAR
STARTCHAR 0031
ENCODING 49
SWIDTH 176 0
DWIDTH 18 0
BBX 22 30 -2 0
BITMAP
00000C
00001C
000038
0000F8
0001F0
0003F0
0007E0
000FC0
0019C0
003380
00E780
01C700
030F00
0E1E00
1C1E00
703C00
E07C00
407800
00F800
01F000
03E000
03E000
07C000
0FC000
0F8000
1F0000
3F0000
3E0000
7C0000
780000
ENDCHAR
STARTCHAR 0032
ENCODING 50
SWIDTH 215 0
DWIDTH 22 0
BBX 26 30 -2 -1
BITMAP
00007E00
0001FF00
0003C380
000F0180
001E11C0
001C31C0
003C23C0
003863C0
0070C7C0
0071C7C0
00738F80
003F0F80
003C1F00
00003E00
0000FC00
0001F000
0003C000
000F0000
001C0000
00700000
00C00000
03800000
07C00000
0FF00000
1E781800
38783800
387C7000
707CE000
E03F8000
401E0000
ENDCHAR
STARTCHAR 0033
ENCODING 51
SWIDTH 205 0
DWIDTH 21 0
BBX 24 30 -1 0
BITMAP
0000FC
0007FE
000F07
003E47
003C47
00788F
00708F
00711F
00661E
003C3E
00007C
000078
0000E0
001FC0
007FC0
007EC0
0070E0
0001E0
0003E0
0003E0
0007C0
3007C0
F00FC0
F81F80
F03F00
807E00
C0F800
E3F000
7FC000
3E0000
ENDCHAR
STARTCHAR 0034
ENCODING 52
SWIDTH 235 0
DWIDTH 24 0
BBX 27 30 -2 0
BITMAP
00000F00
00001F00
00003F00
00003E00
00007C00
00007C00
0000F800
0000F000
0001F060
0001E060
0001E0C0
0003C1C0
00038180
00078380
00070700
000E0600
001C0E00
001C1C00
00383C00
00303800
007078C0
00E0F180
0FFDFF00
3F87FC00
6603E000
FC07E000
6007C000
000FC000
001F8000
001F0000
ENDCHAR
STARTCHAR 0035
ENCODING 53
SWIDTH 225 0
DWIDTH 23 0
BBX 27 31 -2 0
BITMAP
00000060
0001E1E0
0001FFC0
0003FF80
0003FE00
00040000
000C0000
00080000
00100000
00300000
00200000
00600000
00FF0000
01E1C000
0380C000
0300E000
0000E000
0001E000
0001E000
0001E000
0003E000
0003E000
0007C000
200FC000
F00F8000
F01F0000
F03E0000
C07C0000
C1F00000
7FE00000
3F000000
ENDCHAR
STARTCHAR 0036
ENCODING 54
SWIDTH 205 0
DWIDTH 21 0
BBX 24 30 -1 -1
BITMAP
0000FC
000386
000607
001C0F
00381F
00780E
00F000
01E000
03C000
07C000
078000
0F8000
1F3E00
1FE300
3F8300
7E0780
7C0780
780780
F80F00
F00F00
F00F00
E01F00
E03E00
E03E00
E07C00
E0F800
E1F000
73E000
3FC000
1F0000
ENDCHAR
STARTCHAR 0037
ENCODING 55
SWIDTH 196 0
DWIDTH 20 0
BBX 22 30 -1 0
BITMAP
008004
01BC0C
03FE38
03FFF8
070FF0
0E07E0
0C00C0
1C01C0
3C0180
380300
000700
000E00
001E00
001C00
003800
007800
00F000
01F000
01E000
03C000
07C000
0F8000
0F8000
1F0000
3E0000
7E0000
7C0000
FC0000
F80000
F00000
ENDCHAR
STARTCHAR 0038
ENCODING 56
SWIDTH 205 0
DWIDTH 21 0
BBX 23 30 -1 -2
BITMAP
0001F0
0007FC
000E0C
001C06
003C0E
00780E
00780E
00781E
00F81E
00F83C
00F878
00F8F0
007FE0
007F80
007E00
01FE00
073E00
0E1E00
3C1E00
781F00
700F00
F00F00
E00F00
E01F00
E01E00
E03E00
E03C00
70F800
7FF000
3FC000
ENDCHAR
STARTCHAR 0039
ENCODING 57
SWIDTH 196 0
DWIDTH 20 0
BBX 24 29 -2 -1
BITMAP
000078
0003C6
000706
000F07
001E07
003C07
00780F
00F80F
00F00F
00F01F
00F01E
01E03E
01E03E
00E07C
00E1FC
00E7F8
007FF0
0001F0
0003E0
0003C0
000780
000F80
780F00
781E00
F83C00
407800
60E000
77C000
1E0000
ENDCHAR
STARTCHAR 003A
ENCODING 58
SWIDTH 68 0
DWIDTH 7 0
BBX 8 19 -1 -1
BITMAP
01
03
07
06
0C
18
38
30
60
C0
00
00
00
08
1C
3E
3E
3C
38
ENDCHAR
STARTCHAR 003B
ENCODING 59
SWIDTH 88 0
DWIDTH 9 0
BBX 10 23 -1 -6
BITMAP
0040
00C0
01C0
0180
0300
0600
0E00
1C00
1800
3000
0000
0000
0000
0700
0F80
0F00
0F00
0700
0E00
1C00
3800
F000
E000
ENDCHAR
STARTCHAR 003D
ENCODING 61
SWIDTH 137 0
DWIDTH 14 0
BBX 15 5 0 8
BITMAP
7FFE
7E00
0000
007C
FFFC
ENDCHAR
STARTCHAR 003F
ENCODING 63
SWIDTH 274 0
DWIDTH 28 0
BBX 22 30 4 -1
BITMAP
0003E0
000F38
00181C
00301C
00601C
00C01C
00F03C
00F03C
00F07C
0060F8
0001F0
0001E0
0003C0
000F00
001E00
003800
007000
00C000
018000
030000
060000
040000
0C0000
080000
000000
200000
F00000
F00000
F00000
600000
ENDCHAR
STARTCHAR 0041
ENCODING 65
SWIDTH 431 0
DWIDTH 44 0
BBX 68 50 -4 -1
BITMAP
000000000000000030
0000000000000000F0
0000000000000003F0
000000000000000EE0
0000000000000019C0
0000000000000073C0
00000000000000C380
000000000000018780
000000000000070F00
0000000000000C0E00
000000000000181E00
000000000000303C00
000000000000603C00
000000000000C07800
00000000000180F000
00000000000300F000
00000000000601E000
00000000000C03E000
000003F8001807C000
00000FFF0030078000
00001FFF80600F8000
00003FC1C0401F0000
00007E00E0C01F0000
00007C0031803E0000
0000F8001B007C0000
0000F0001E00FC0000
0000F0000C00F80000
0000E0000C01F80000
0000E0001403F00000
0000E0002607E00000
0000E0004207E00000
0000E000C20FC00000
00007001861F800000
00007003061F800000
00007006063F000000
0000380C067E000000
0000381806FE000000
00001C3006FC000000
00000E6005F8000000
3E0007C00FF0100000
7F0007800FF0300000
FF0003C00FE0700000
FF0006701FC0E00000
CE00083C1F83800000
C000100F3FBF000000
C0006003FFFC000000
C0008000FFE0000000
60030000FE00000000
301C0001FC00000000
0FE00001F800000000
ENDCHAR
STARTCHAR 0042
ENCODING 66
SWIDTH 441 0
DWIDTH 45 0
BBX 58 51 -3 -2
BITMAP
00000000000000C0
000000001FF803C0
00000000F00F0700
000000078001CE00
0000001C00007800
0000007000007000
000000C000007800
000003808001E800
00000E00C0038C00
00001800C0078E00
00007001C00F0E00
0000E001C01E0E00
00018001801E0F00
00030001803C1F00
0006000380781F00
000C000380F81E00
001C000781F03E00
0018000701F03E00
0030000F03E07C00
0060000E07E0FC00
0060001E0FC1F800
00C0003C0FC1F000
00C000381F83E000
018000781FCF8000
018000F03FFF0000
018001E07FC40000
018003C07C040000
01800780F8040000
01801E00F8060000
00803C01F0070000
00E1F003F0070000
007F8003E0070000
00000007E0070000
0000000FC18F8000
0000001F870F8000
0000001F180F0000
0000003F301F0000
0000007E401F0000
000000FC803E0000
000001F9007E0000
1E0003F2007C0000
7F0003E400FC0000
7F0007C401F80000
DF000F8803F00000
CE001F0807F00000
80003E180FE00000
C000FC100FC00000
C001F0101F800000
600FC0187E000000
3FFE001FF8000000
1FF0000FE0000000
ENDCHAR
STARTCHAR 0043
ENCODING 67
SWIDTH 333 0
DWIDTH 34 0
BBX 53 51 -3 0
BITMAP
000000000001F0
00000E00000E18
00007C00003818
0001E00000E038
0007800003C038
001C0000078038
007800000E0070
01E000003C00F0
03C000007800E0
0F000000F001C0
1E000001E00380
3C000007E00700
3800000FC00E00
7800001F801C00
7000003F003800
E000007E007000
E00000FC00C000
E00000F8038000
C00001F8060000
C00003F01C0000
C00007E0700000
60000FC1E00000
60001FC7000000
30003F9C000000
18003FF0000000
0E007F80000000
01FFFC00000000
0001FC00000000
0001F800000000
0001F001C00000
0003F00FF00000
0003E018380000
0007E070180000
0007C0C0180000
000FC180180000
000F8180180000
000F8300380000
000F0200380000
001F0600780000
001E0400780000
001E0C00F00000
001E0801E00000
001E0803E00000
000C1803C00000
000C1007800000
000C100F000000
0006003E000000
0006007C000000
000383F0000000
0001FFE0000000
0000FE00000000
ENDCHAR
STARTCHAR 0044
ENCODING 68
SWIDTH 392 0
DWIDTH 40 0
BBX 54 49 -2 0
BITMAP
00000007FE0000
0000007801C000
000001C0002000
00000700001000
00001E00000C00
00007800000400
0001F000000200
0003E000000300
000F8003000100
001F0003000180
003E00030001FC
007C00030001F8
007800020003C0
00F800020007C0
01F00002001EC0
01E00006003CC0
03C000040078C0
03C0000400F0C0
0780000801E0C0
0780001803E0C0
0780001007C080
070000200F8080
070000600F8180
070000C01F0180
070001803E0180
070007007E0100
03000C007C0300
01803800FC0200
00E3E001F80600
001F0001F80600
00000003F00C00
00000007E00C00
00000007E01800
0000000FC01800
0000001F803000
0000001F806000
0000003F004000
0000007E00C000
0000007C018000
000000FC030000
000001F8060000
000003E00E0000
000007C01C0000
0F000F80300000
FFF81F00E00000
FFFF3C03C00000
E0FFF80F000000
7C7FFFFC000000
1FFFFFE0000000
ENDCHAR
STARTCHAR 0045
ENCODING 69
SWIDTH 274 0
DWIDTH 28 0
BBX 45 50 -3 1
BITMAP
000000007FC0
00000003E070
0000000F8030
0000003E0018
000000FC0018
000001F00718
000003E01C18
000007C07818
00000F80E018
00001F81C038
00003F038030
00003E030060
00003C0600E0
00003C0601C0
00003C060380
000038060700
000038063C00
00003801F000
000018000000
00001FE00000
00003FF00000
0001C6380000
000781F00000
001E00000000
007C00000000
00F800000000
03F000000000
07E000000000
0FC000000000
1FC007C00000
1F801CF00000
3F0030180000
7F00C01C0000
7E01801C0000
7C03001C0000
FC02001C0000
FC06001C0000
F804001C0000
F80C003C0000
F80800380000
F80800780000
F01800F00000
781800F00000
781801E00000
380003C00000
380007800000
18000E000000
0C0038000000
0701E0000000
00FF00000000
ENDCHAR
STARTCHAR 0046
ENCODING 70
SWIDTH 313 0
DWIDTH 32 0
BBX 71 51 -5 0
BITMAP
00000000000000001E
000000000FFFFFFFFC
000000007001FFFFF0
0000000380000FFF00
0000001C0000000000
000000601000600000
000001C01000C00000
000003001001800000
00000E003003800000
000018003007000000
00003000300E000000
00006000600E000000
0000C000601C000000
00018000E038000000
00030001C078000000
00020003C0F0000000
0006000380F0000000
0006000701E0000000
0004000E03E0000000
0004001C07C0E00000
0004007807C3E00000
000600F00F87E00000
000607C01F87E00000
0003FF001F0FC00000
0000E0003F1F000000
000000003E7C000000
000000007FF8000000
00000000FCF0000000
00000007F8F0000000
0000003FF9E0000000
000001E1F3E0000000
00000383F3C0000000
00000E03E000000000
00001C07E000000000
0000300FE000000000
0000600FC000000000
0000C01F8000000000
0001803F8000000000
0001003F0000000000
0C00007E0000000000
3F0000FC0000000000
7F0001F80000000000
FF0003F00000000000
CF0007E00000000000
80000FC00000000000
80001F800000000000
C0007E000000000000
C000FC000000000000
6003F0000000000000
381F80000000000000
0FF800000000000000
ENDCHAR
STARTCHAR 0047
ENCODING 71
SWIDTH 313 0
DWIDTH 32 0
BBX 48 50 -2 0
BITMAP
0000070000FC
00001E000382
000070000E03
0001C0003C07
000780007007
001E0001E00E
007C0003C00E
00F00007801C
03E0000F003C
07C0003E0038
0F80007C0070
1F0000FC00E0
3E0001F80180
3C0003F00300
780003E00E00
700007C01C00
F0000FC03018
E0001F80E030
E0003F018060
C0003E0700C0
C0007E0C0180
C0007C380380
C000FCE00700
C000FB800F00
6001FE001E00
7001F8007E00
3803E000FC00
0FFFE001FC00
0001C0037C00
0001C00CF800
00018019F800
00008061F000
0000C383F000
00007E03E000
00000007E000
0000000FE000
0000000FC000
0000001FC000
0000003F8000
0000003F0000
07C0007E0000
0FE000FC0000
1FC001F80000
1B8003E00000
100007C00000
10000F800000
18001E000000
0E00FC000000
07FFE0000000
01FE00000000
ENDCHAR
STARTCHAR 0048
ENCODING 72
SWIDTH 411 0
DWIDTH 42 0
BBX 74 51 -5 -2
BITMAP
00000000000010003F00
0000000000007000C1C0
000000000000E00300C0
000000000001C00400C0
000000000003801800C0
000000000003003000C0
000000000006006001C0
00000000000C00C00180
00000000001C01C00380
00000000001803800700
000000E0003007000700
000007F800700F000E00
00001C0800E01E001C00
0000301C01E03C007800
0000E03C03C07C00F000
0001C03807C07801C000
000380780F80F0078000
000300F03781F00E0000
000000E04F03E0380000
000000C19F03C0E00000
000000863E07C3800000
000000783E0F9E000000
000000007C0FF0000000
00000000FC1F00000000
00000000F81F00000000
00000001FFFE00000000
00000003FC7C00000000
00000003F07C00000000
0000000FE0F800000000
0000007FC0F800000000
000001E781F000000000
0000070F81F000000000
00001C1F03E000000000
0000701E03E000000000
0000E03E07C000000000
0001C07C07C000000000
000300F8078000000000
000600F80F8000000000
000401F00F0000000000
000003E00F0020000000
000003C01E0060000000
3E0007801E0060000000
7F000F001C00C0000000
7F001E001C0180000000
C6003C001C0380000000
C00078001C0700000000
C000F000180E00000000
6003C000181800000000
700F00001C7000000000
3FFC00000FE000000000
0FE0000007C000000000
ENDCHAR
STARTCHAR 0049
ENCODING 73
SWIDTH 264 0
DWIDTH 27 0
BBX 59 50 -6 -1
BITMAP
00000000000003E0
0000000000003C00
000000000000F000
000000000007C000
00000000001D8000
0000000000730000
0000000000C60000
00000000038E0000
00000000070C0000
000000001C180000
0000000038380000
0000000070700000
00000000E0720000
00000001C0E20000
0000000381E30000
0000000781C30000
0000000F03C30000
0000001E07C30000
0000001E07830000
0000003C0F830000
0000003C0F060000
000000781F060000
000000783E0E0000
000000783E0C0000
000000707C1C0000
000000707C180000
00000070F8300000
00000070F8700000
00000031F0E00000
00000031F1800000
0000003BF7000000
0000001FFC000000
0000000FE0000000
0000000FC0000000
0000001F80000000
0000003F00000000
0000003F00000000
0000007E00000000
000000FC00000000
000001F800000000
3F0003F000000000
7F0003E000000000
7F0007C000000000
46000F0000000000
C0001E0000000000
4000380000000000
4000E00000000000
3001C00000000000
180E000000000000
07F0000000000000
ENDCHAR
STARTCHAR 004A
ENCODING 74
SWIDTH 343 0
DWIDTH 35 0
BBX 65 69 -6 -21
BITMAP
000000000000000780
00000000000000FF00
00000000000003F000
0000000000000FE000
0000000000003F8000
000000000000FB0000
000000000001F60000
000000000007CC0000
00000000001F180000
00000000003C380000
000000000078300000
0000000000F0700000
0000000001E0E00000
0000000003C1E00000
000000000781C80000
000000000F03880000
000000001E07880000
000000003E07080000
000000007C0F080000
00000000781E080000
00000000F81E180000
00000000F03E180000
00000001F03C180000
00000001E07C380000
00000001E0F8300000
00000001C0F8700000
00000001C1F0E00000
00000001C1F1C00000
0000000183E3C00000
0000000183E7800000
0000000087DF000000
00000000CFFC000000
000000006FF8000000
000000003FE0000000
000000003F80000000
000000003F00000000
000000007F00000000
00000000FE00000000
00000000FC00000000
00000001FC38000000
00000001F878000000
00000003F8F0000000
00000007F3E0000000
00000007E7C0000000
0000000FFE00000000
0000001FF800000000
0000003FC000000000
000001FF0000000000
000007FE0000000000
00003F7E0000000000
0000FC7C0000000000
0003F0F80000000000
000FC0F00000000000
001F01E00000000000
007C03C00000000000
01F003C00000000000
03E007800000000000
07800F000000000000
0F001E000000000000
1E003C000000000000
3C0078000000000000
780070000000000000
7000C0000000000000
F00180000000000000
E00700000000000000
C00C00000000000000
C01800000000000000
786000000000000000
3F8000000000000000
ENDCHAR
STARTCHAR 004B
ENCODING 75
SWIDTH 362 0
DWIDTH 37 0
BBX 69 48 -5 -2
BITMAP
0000000000004000F8
000000000001C003F0
000000000003800F00
000000000007001E00
00000000000E007800
00000000000C00F000
00000000001C01E000
00000000003803C000
000000000070078000
000007F800F00F8000
00000F1801E01F0000
0000181C03C03E0000
0000701C07C07C0000
0000E03C0F80780000
0000C0781F80F00000
000180707F01F00000
00030070FF03E00000
00070063BE07C00000
0006003E3E07800000
000000007C0F000000
00000000781E000000
00000000F83C000000
00000001F078000000
00000001F070000000
00000003FDE0000000
00000007FFC0000000
00000007FB00000000
0000000FC380000000
0000001F8780000000
0000001F8780000000
0000003F0F80000000
0000003E0F80000000
0000007E1F80000000
000000FC3F00000000
000000F83F00000000
000001F07E00000000
000003E07E00000000
1C0003C0FC04000000
3E000780F80E000000
7E000F00F80C000000
7E001E00F018000000
C0003C00F030000000
C0007800F060000000
C000E000E0C0000000
4001C000E180000000
60070000C300000000
301C00004600000000
0FE000003800000000
ENDCHAR
STARTCHAR 004C
ENCODING 76
SWIDTH 352 0
DWIDTH 36 0
BBX 61 48 -3 0
BITMAP
00000001F0000FE0
0000000F80003CF0
0000003C0000E038
000000F00001C038
000003C000030038
0000078000060078
00000F00000E0070
00001E00001C00F0
00003C00003800E0
00007C00007001E0
0000780000F003C0
0000F80001E00380
0000F00001E00700
0001F00003C00E00
0001E00007C01C00
0001E0000F803800
0001C0000F807000
0001C0001F00E000
0001C0003F018000
0001C0003E030000
0001C0007E0E0000
0000C0007E1C0000
00006000FC700000
00007000FDE00000
00003801FF000000
00000E03F8000000
000003FFF0000000
00000003F0000000
00000007E0000000
0000000FE0000000
0000000FC0000000
0000001FC0000000
0000001F80000000
0000003F00000000
0000007E00000000
0000007C00000000
000000F800000000
000001F000200000
000001E000600000
000003C000E00000
0000078000C00000
0FFC0F0001800000
707FFE0007000000
C00FFC000E000000
C003FE003C000000
C003FFF3F0000000
E01E1FFFC0000000
3FE003FE00000000
ENDCHAR
STARTCHAR 004D
ENCODING 77
SWIDTH 509 0
DWIDTH 52 0
BBX 73 49 -4 0
BITMAP
00000000000000E00180
00000000000001C00380
00000000000003C00700
00000000000007800E00
0000000000000F001C00
0000000000001E003C00
0000000000003C007800
0000000000003C00F000
0000000000007801F000
000000000000F001E000
000000000001F003E000
0000000000036007C000
000000000002E00D8000
000000000005C01B8000
00000000000980170000
000000000013803E0000
000000000027006E0000
00000000006E00FC0000
0000000000DE01BC0000
00000000009C01780000
00000000013C02700000
00000000027804F00000
0000000004F809E00000
000000000CF019E00000
0000000019E013C00000
0000000033E027C00000
0000000027C04F800000
0000000047C0CF800000
000000008F819F000000
000000011F013E000000
000000021F023E000000
000000063E047C000000
0000000C3E0CFC000000
000000187C18F8000000
00000010F811F0000000
00000020F821F0000000
00000041F043E0000000
00000081F0C3E0000000
00000103E187C0200000
3C000603C107C0200000
7E000C07C20780600000
FF001807840F80E00000
9E0030078C0F81C00000
8000E00F180F03800000
8001800F300F07000000
8007000E600E1E000000
E03C000FC00F7C000000
7FF000078007F8000000
3FC00000000000000000
ENDCHAR
STARTCHAR 004E
ENCODING 78
SWIDTH 421 0
DWIDTH 43 0
BBX 73 48 -5 -1
BITMAP
00000000000000000180
00000000000E00000780
00000000000C00000E00
00000000001C00003C00
00000000003800007000
0000000000380000E000
0000000000780001C000
0000000000F000038000
0000000000F000070000
0000000001F0000E0000
0000000001F0000C0000
0000000003F000180000
0000000007F000300000
0000000007F000700000
000000000DF000E00000
0000000019F001C00000
0000000019F001800000
0000000031E003800000
0000000073E003000000
0000000063E006000000
00000000C3E006000000
00000000C3E00C000000
0000000183E018000000
0000000183E018000000
0000000303E030000000
0000000603E060000000
0000000607E060000000
0000000C07E0C0000000
0000001C07E1C0000000
0000001807E180000000
0000003007C300000000
0000007007C300000000
000000E007C600000000
000000C007CC00000000
0000018003CC00000000
0000038003D800000000
0000070007F800000000
00000E0007B000000000
00001C0007E000000000
7C00180003E000000000
FC00700003C000000000
FC00E00007C000000000
F001C000078000000000
80078000078000000000
C00F0000070000000000
E03C0000070000000000
7FF00000060000000000
1F800000060000000000
ENDCHAR
STARTCHAR 004F
ENCODING 79
SWIDTH 284 0
DWIDTH 29 0
BBX 43 50 -2 -1
BITMAP
00000007FC00
0000003FFE00
000000FC0780
000001F001C0
000007E000E0
00000FC00060
00001F000060
00003E000060
00007C07E020
0000F83FF020
0001F0F03860
0003E1C01840
0007C3800DC0
000FC7000F80
001F8E01DF00
003F0C00FC00
007E18000C00
007E30000C00
00FC60001C00
01F860001C00
01F8C0001C00
03F1C0003800
07F180003800
07E300003800
0FE300007000
1FC600007000
1F860000E000
1F8C0000E000
3F0C0001C000
3F180001C000
7F1800038000
7E3000038000
7E3000070000
FC20000E0000
FC60000E0000
F860001C0000
F84000380000
F84000300000
F0C000600000
F0C000C00000
F00001800000
F00003000000
F00006000000
E0000C000000
600018000000
700070000000
7000E0000000
380380000000
1C0E00000000
07F000000000
ENDCHAR
STARTCHAR 0050
ENCODING 80
SWIDTH 362 0
DWIDTH 37 0
BBX 53 49 -3 0
BITMAP
00000000FFC030
0000000FF83860
0000003C0004C0
000001F0000380
000003C0000780
00000F01000EC0
00001C01001C60
00007801003C70
0000E003003830
0001C002007038
0003800200F038
0007000601E038
000E000601E038
001C000403C038
0038000C03C078
0070001C1F8078
006000186F80F8
00E000188F00F8
01C000311F01F0
018000723E03E0
038000E23E07E0
030000C47C0FC0
030001C47C1F80
07000382FC3F00
06000703F87C00
06000E01F9F800
06001803FFE000
06007003FE0000
0300C007F00000
03830007E00000
01FC000FC00000
0000001FC00000
0000001F800000
0000003F000000
0000003E000000
0000007C000000
000000FC000000
000001F8000000
3C0003F0000000
7E0003E0000000
FE0007C0000000
9E000F80000000
80001F00000000
80003C00000000
C000F800000000
4003E000000000
780FC000000000
3FFE0000000000
07F00000000000
ENDCHAR
STARTCHAR 0051
ENCODING 81
SWIDTH 411 0
DWIDTH 42 0
BBX 49 48 -2 -2
BITMAP
00000000FFC000
0000000780E000
0000003C001800
000000F0000C00
000001C0000600
00000700000600
00000C00200700
00003800200700
00007000300780
0000E000300780
0001C000300780
00018000300F80
00030000700F80
00060000600F80
000E0000600F80
000C0000E01F80
00180000E01F80
00180001C03F00
00300001C03F00
00300003807E00
00300007807E00
0060000F00FE00
0060001E00FC00
0060003C01F800
0060007801F800
006000F003F000
003001C007F000
0030078007E000
001C1E000FC000
0007F0001F8000
000000003F0000
000000003E0000
00000000FC0000
00000001F80000
00000003F00000
00000007E00000
0000000F800000
0000001F000400
0000007E000E00
1FF000F8000E00
7FFE01E0001C00
FFFFE7C0003800
C0FFFF00007000
C007FF8001E000
C003FFF0078000
FFFF0FFFFF0000
7FF801FFFC0000
1FC0007FE00000
ENDCHAR
STARTCHAR 0052
ENCODING 82
SWIDTH 411 0
DWIDTH 42 0
BBX 54 50 -2 -1
BITMAP
00000000FFF80C
0000000F800E7C
000000780003F0
000001C00001E0
000007000003C0
00001C02000720
00007002000F10
0000E002001E18
0001C002003C18
00030002003C1C
0006000200781C
000C000200F83C
0018000601F03C
0038000601E03C
0070000E03E03C
0060000C03C07C
00C0001C07C0FC
01C000180F80F8
018000380F01F8
038000701F03F0
030000703E03E0
030000E03E07C0
070001C07C0F80
060003C07C1F00
06000780FE3E00
06000F01FFF800
06001E01FBE000
06003C03FFC000
03007007E0C000
0301E007E0E000
0183800FC1E000
007C000F81E000
0000001F83E000
0000001F03E000
0000003E07C000
0000007E0FC000
000000FC0F8000
000000F81F8000
000001F01F0000
000003E03F0000
3C0003E07E0180
7E0007C07C0380
FE000F00FC0700
FE001E00F80E00
9C003C00F81C00
80007800F03000
C001E000F06000
C0038000E1C000
601E0000638000
1FF000003E0000
ENDCHAR
STARTCHAR 0053
ENCODING 83
SWIDTH 284 0
DWIDTH 29 0
BBX 61 52 -4 -1
BITMAP
00000000000003F0
00000000E0000FF8
0000000FC0001E18
0000003E00003818
000000F80000E018
000003E00001E018
00000F800003C038
00001F0000078030
00003E0000070070
00007C00000E00E0
0000F000001C00C0
0001F000001801C0
0001E00000380380
0003C00000780700
0003C00000700600
0007800000F00C00
0007800001E01000
0007800001E06000
0007000003C0C000
0007000007C10000
0007000007860000
000700000F8C0000
000380000F900000
000380001F600000
0001C0003F800000
0000E0003E000000
000070007E000000
00001E01FC000000
000001FFFC000000
00000001F8000000
00000001F8000000
00000003F0000000
00000003F0000000
00000007E0000000
00000007C0000000
0000000FC0000000
0000001F80000000
0000001F00000000
0000003F00000000
0000007E00000000
000000FC00000000
000000F800000000
3C0001F000000000
7E0003E000000000
FE00078000000000
FE000F0000000000
DE001E0000000000
C000380000000000
C000F00000000000
6001800000000000
380E000000000000
0FF0000000000000
ENDCHAR
STARTCHAR 0054
ENCODING 84
SWIDTH 294 0
DWIDTH 30 0
BBX 70 52 -5 -1
BITMAP
0000000001FF80001C
000000003FFFFF803C
00000001FCFFFFFFF8
0000000F8001FFFFE0
0000003C00000FFE00
000000F01000200000
000001C01000400000
000003801000C00000
00000E003003800000
00001C003003000000
000038002006000000
00007000600E000000
0000E000601C000000
0000C000E038000000
00018000C078000000
00038001C0F0000000
0003000380F0000000
0007000781E0000000
0006000F03E0000000
0006001E03C0000000
0006003C07C0000000
0006007807C0000000
000600E00F80000000
000703C01F80000000
0003FF001F00000000
0000F0003F00000000
000000007E00000000
000000007E00000000
00000000FC00000000
00000000FC00000000
00000001F800000000
00000003F800000000
00000003F000000000
00000007E000000000
00000007E000000000
0000000FC000000000
0000001FC000000000
0000001F8000000000
0000003F0000000000
0000007F0000000000
0000007E0000000000
1C0000FC0000000000
7F0001F80000000000
FF0003F00000000000
DF0007E00000000000
84000F800000000000
80001F000000000000
80003C000000000000
8000F8000000000000
4001E0000000000000
700F00000000000000
1FF800000000000000
ENDCHAR
STARTCHAR 0055
ENCODING 85
SWIDTH 382 0
DWIDTH 39 0
BBX 54 50 -2 -2
BITMAP
000007FE000000
00001C03000000
00007000C00000
0001C000C00000
00030000600000
000E0400700000
001C060070003C
0038020070007C
00700200F000FC
00C00600F000F8
01800600F001F0
03800601F003F0
07000601F003E0
06000E03E007E0
0C000E03E007C0
1C001C07E00FC0
18001C07C01F80
30003C0FC01F00
3000380F803F00
6000781F007E00
6000703F007C00
E000F03E00FC00
C001E07E00F800
C003C0FC01F800
C00380F803F000
C00F01F803E000
C01E01F007E000
C03C03F007C000
E07807E00FC000
FBE007E01F8000
3F800FC01F0000
00000F803F0000
00001F807E0000
00001F007E0000
00003F00FC0000
00003E00F80000
00007C03F80000
00007C07F00000
0000F807F00000
0000F80FE01000
0001F00FE03000
0001F01FC06000
0001E037C0E000
0001E06781C000
0001E0C7818000
0003C1C7030000
0001C387060000
000187071C0000
0001DE03F80000
0000F801E00000
ENDCHAR
STARTCHAR 0056
ENCODING 86
SWIDTH 215 0
DWIDTH 22 0
BBX 64 50 -4 -1
BITMAP
0000000038000007
000000007000001C
0000000060000070
00000000C00001C0
00000001C0000380
0000000380000E00
0000000300001C00
0000000700007000
0000000F0000E000
0000001E0001C000
007F001E00038000
00E3803C00060000
0381807C000C0000
0603C0FC00180000
0C0781F800300000
180781F800600000
300783F800C00000
700F07F001800000
E00E0FF003000000
C00E1BE006000000
C00C37E00C000000
000EC7E018000000
00030FC030000000
00000FC060000000
00001F8040000000
00001F8080000000
00003F0100000000
00003F0300000000
00003E0600000000
00007E0C00000000
00007E1800000000
0000FC3000000000
0000FC2000000000
0000F84000000000
0001F08000000000
0001F10000000000
0001E20000000000
0003E60000000000
0003CC0000000000
0007D80000000000
0007B00000000000
0007600000000000
000FC00000000000
000F800000000000
001F000000000000
001E000000000000
003C000000000000
0070000000000000
00E0000000000000
00C0000000000000
ENDCHAR
STARTCHAR 0057
ENCODING 87
SWIDTH 372 0
DWIDTH 38 0
BBX 73 50 -5 -1
BITMAP
00000000380070000180
000000003000E0000700
000000006001C0001E00
00000000C00380003800
00000001C00780007000
0000000180070000C000
00000003000F00038000
00000007001E00030000
00000007001E00040000
0000000E003C000C0000
001F000E007C00180000
0071801C00BC00100000
01C1C03C01F800300000
0301C07C017800600000
0603C07802F800C00000
0C03C0F806F001800000
1807C1F805F001000000
380783F009F003000000
700F87F00BE006000000
600F0FF013E00C000000
C00E13E027E008000000
4007E3E047C010000000
000187E04FC020000000
000007C08FC060000000
00000FC11F8040000000
00000F811F8080000000
00001F821F0100000000
00001F043F0200000000
00003F083E0600000000
00003E083E0400000000
00003E107E0800000000
00007C207C1000000000
00007C207C3000000000
0000F840F82000000000
0000F880F84000000000
0000F100F08000000000
0001F201F18000000000
0001E201E30000000000
0001C401E60000000000
0003C803CC0000000000
00039003D80000000000
0007A007B00000000000
00074007600000000000
000E800EC00000000000
000F000F800000000000
001E001F000000000000
001C001C000000000000
00380038000000000000
00700070000000000000
00E00060000000000000
ENDCHAR
STARTCHAR 0058
ENCODING 88
SWIDTH 362 0
DWIDTH 37 0
BBX 55 51 -3 0
BITMAP
0000001FE00000
000000E0100000
0000038008000C
00000E0004001E
00001800040038
00003010060070
0000E0100600C0
00018018060180
00030018070300
00060018070600
000E0018070C00
000C00180F1800
001800180F3000
001800380F3000
003000380F6000
003000701FC000
006000701FC000
006000F03F8000
004000E07F0000
004001C07F0000
00C003C07E0000
00C00780FE0000
00C00700FC0000
00C00E01FC0000
00C01C3FFFE000
00407807FFC000
0060E007F00000
001F8007E00000
0000000FE00000
0000001FC00000
0000001F800000
0000003F800000
0000007F000000
0000007F000000
000000FE000000
000001FE000000
000001FC000000
000003FC000000
000007F8000000
000007D8000000
00000F98000000
10001F30006000
3E003E3000E000
7E007C3001C000
FE00F820038000
CC01F060030000
8003C060060000
80078060180000
C00E0070300000
70780038C00000
0FC0001F000000
ENDCHAR
STARTCHAR 0059
ENCODING 89
SWIDTH 519 0
DWIDTH 53 0
BBX 60 51 -3 -1
BITMAP
0000000000000030
000000FFC00000F0
00000700600001C0
0000180010000380
0000600018000700
0001C00018000600
000702001C000C00
000C02001C001C00
001802001C003800
003002003C007800
006003003C007000
00C007007C00F000
01800600FC01E000
03000600FC01E000
06000601FC03C000
0C000603F807C000
08000E03F0078000
18000C07F00F8000
30001C07E00F8000
30001C0FC01F0000
6000381FC03F0000
6000781F803E0000
C000703F007E0000
C000E07F007E0000
8001E07E00FC0000
8001C0FC01FC0000
800380F803F80000
800701F807F80000
800E01F007F00000
801C03E00FF00000
C07003E01FE00000
E1E003C03FE00000
7F8003C06FC00000
0C000380DF800000
000001813F800000
000001C63F000000
000000F87E000000
00000000FE000000
00000001FC000000
00000001F8000000
00000003F0000000
00000003E0000000
007C0007C0000000
00FE000F00000000
01FE001E00000000
01FC003C00000000
0180007000000000
018001E000000000
00C0038000000000
00601E0000000000
001FE00000000000
ENDCHAR
STARTCHAR 005A
ENCODING 90
SWIDTH 362 0
DWIDTH 37 0
BBX 63 50 -4 -1
BITMAP
00000003FC00007C
0000003E07000386
000000F003800E06
0000038003801C06
00000E000780380E
0000380C0F80701C
0000700C0F81E038
0000C00C1F03C070
0001800C1E0780E0
0007000C1E0F03C0
000E000C1C0F0F00
000C001C0C1E3C00
0018001C073FF000
0030003801FFC000
0070003800FC0000
0060007800F80000
00C000F001F80000
00C000F003F00000
00C001E007F00000
018003C007E00000
018007800FE00000
01800F001FC00000
01801E001FC00000
01C07C003F800000
00E1F00FFF800000
00FFE01FFFF80000
003F001FFF800000
00000000FE000000
00000000FC000000
00000001F8000000
00000003F8000000
00000007F0000000
00000007E0000000
0000000FE0000000
0000001FC0000000
0000001F80000000
0000003F00000000
0000007E00000000
0000007C00000000
000000F800000000
000001F000180000
000003E000180000
000003C000300000
07FF870000600000
380FFE0000C00000
E001FF0001800000
C000FFC003000000
C0018FF80E000000
600E03FFF8000000
3FF0007FC0000000
ENDCHAR
STARTCHAR 0061
ENCODING 97
SWIDTH 294 0
DWIDTH 30 0
BBX 32 20 2 -2
BITMAP
0007E3F0
001C17E0
00781FE0
01F01FC0
03E01F80
07C01F80
1F803F00
3F003E00
7F007C02
FE007C07
FC00F806
7C01F80C
7803F018
7805E030
7008E070
7010C1C0
3020C380
3C40FF00
1F807C00
06000000
ENDCHAR
STARTCHAR 0062
ENCODING 98
SWIDTH 225 0
DWIDTH 23 0
BBX 28 42 2 -1
BITMAP
000001F0
000003F0
000003E0
000007E0
00000FC0
00000F80
00001F00
00001F00
00003E00
00007E00
00007C00
0000F800
0000F800
0001F000
0003E000
0003E000
0007C000
000FC000
000F8000
001F0000
003F0000
007E0000
00FE0000
01FC3C00
03F87C00
07F86C00
0DF0CC00
0BF18C00
1BE10800
37E31800
67C21000
CF823000
8F846100
1F04C300
1F06C600
1E078C00
3E033800
3C04E000
1C080000
1C180000
0C600000
07800000
ENDCHAR
STARTCHAR 0063
ENCODING 99
SWIDTH 196 0
DWIDTH 20 0
BBX 20 20 3 -1
BITMAP
000FC0
007E60
00F8F0
03E1F0
07E1F0
0FC1E0
3F81C0
7F0000
FE0000
FE0000
7C0020
7C0060
7800C0
780180
700300
700700
700E00
303C00
3FF000
0FC000
ENDCHAR
STARTCHAR 0064
ENCODING 100
SWIDTH 284 0
DWIDTH 29 0
BBX 38 37 2 -2
BITMAP
000000003C
00000000FC
00000000F8
00000001F8
00000001F0
00000003E0
00000007E0
00000007C0
0000000F80
0000001F80
0000001F00
0000003E00
0000003E00
0000007C00
000000F800
000000F800
000001F000
0003E3F000
001F13E000
007C1FC000
01F81FC000
03F01F8000
07E01F8000
1FC01F0000
3F803E0000
7F007E0000
7F007C0000
FE00FC0600
7E01F80E00
7C03F00C00
7C06F01800
780CE03000
7818E06000
3830E0C000
38E0E38000
1FC07F0000
0F003C0000
ENDCHAR
STARTCHAR 0065
ENCODING 101
SWIDTH 205 0
DWIDTH 21 0
BBX 21 19 3 -2
BITMAP
000FC0
007C70
01F870
03F070
07E0F0
0FC0F0
3F81E0
7F03C0
FF0780
FE1E00
FFF018
7F8018
7C0030
780040
780080
780300
300E00
38F800
0FE000
ENDCHAR
STARTCHAR 0066
ENCODING 102
SWIDTH 166 0
DWIDTH 17 0
BBX 50 60 -12 -18
BITMAP
00000000000F80
000000000038C0
000000000060C0
0000000001C0C0
000000000301C0
00000000060180
000000000C0380
00000000180300
00000000100600
00000000300E00
00000000600C00
00000000601800
00000000C07000
00000001C06000
00000003818000
00000007830000
000000070E0000
0000000E180000
0000001E300000
0000001CC00000
0000003F800000
0000007E000000
00000078000000
000000F0000000
000003E0000000
000007E0000000
00001BC0000000
000037C0000000
00006780000000
0000CF80000000
00018F00000000
00031F00800000
00023E01800000
00003C03000000
00007C06000000
0000F80C000000
0000F818000000
000FF030000000
001FF0E0000000
000FE380000000
000FFE00000000
000FC000000000
000F8000000000
001F8000000000
001F0000000000
003E0000000000
007E0000000000
007C0000000000
00F80000000000
01F00000000000
03F00000000000
03E00000000000
07C00000000000
0FC00000000000
1F800000000000
1F000000000000
3F000000000000
7E000000000000
7C000000000000
F8000000000000
ENDCHAR
STARTCHAR 0067
ENCODING 103
SWIDTH 284 0
DWIDTH 29 0
BBX 39 42 -7 -22
BITMAP
000007F0FC
00003F99F8
00007F0FF0
0001FC0FE0
0003F80FE0
0007F00FC0
000FE00F80
001FC01F80
003FC03F00
003F803E02
003F80FE02
003F01FC06
003E01F80C
003E03F818
003C07F030
003C0BF060
001C1BE0C0
001C77C180
000FC7C600
00078F9800
00000FE000
00001F0000
00007E0000
0003BE0000
000E3C0000
0038780000
0070780000
01C0F00000
0380E00000
0F01E00000
1E01C00000
3C03800000
7803800000
7007000000
F006000000
E00C000000
E018000000
C030000000
C060000000
C0C0000000
6180000000
3E00000000
ENDCHAR
STARTCHAR 0068
ENCODING 104
SWIDTH 284 0
DWIDTH 29 0
BBX 33 42 0 -2
BITMAP
0000003C00
000000FC00
000000FC00
000001F800
000003F000
000003F000
000007E000
00000FC000
00000FC000
00001F8000
00001F0000
00003F0000
00007E0000
00007C0000
0000FC0000
0000F80000
0001F00000
0003F00000
0003E00000
000FC00000
001FC00000
001F800000
003F800000
007F07C000
00FE19C000
01FE21E000
037C43E000
02F987E000
06FA0FC000
0DF60FC000
19EC1F8000
33F81F8000
27D03F0180
07E03F0300
0FC07E0600
1FC07C0C00
1F80781800
3F00783800
7E00706000
7C0030C000
FC003F8000
F8000C0000
ENDCHAR
STARTCHAR 0069
ENCODING 105
SWIDTH 156 0
DWIDTH 16 0
BBX 20 32 2 -2
BITMAP
0001E0
0001F0
0003F0
0003E0
0001E0
000000
000000
000000
000000
000000
000000
000000
000000
00FC00
01F800
03F800
07F000
0FE000
0FC000
1FC000
3F8000
7F0000
DF0100
3E0300
3E0300
3C0600
380C00
381800
387000
38E000
3F8000
1F0000
ENDCHAR
STARTCHAR 006A
ENCODING 106
SWIDTH 156 0
DWIDTH 16 0
BBX 43 53 -20 -22
BITMAP
0000000001C0
0000000001E0
0000000003E0
0000000003E0
0000000001C0
000000000000
000000000000
000000000000
000000000000
000000000000
000000000000
000000000000
00000001F800
00000003F800
00000007F000
0000000FE000
0000001FC000
0000001FC000
0000003F8000
0000007F0000
000000FF0000
000000BE0100
0000007C0300
0000007C0600
000000F80C00
000001F81800
000001F03000
000003E06000
000003E08000
000007C30000
000007CC0000
00000FB00000
00001FC00000
00003F000000
0001FE000000
00063C000000
001838000000
006078000000
01C070000000
0300E0000000
0601C0000000
0C01C0000000
180380000000
300300000000
600600000000
E00E00000000
C00C00000000
C01800000000
803000000000
806000000000
80C000000000
C30000000000
7E0000000000
ENDCHAR
STARTCHAR 006B
ENCODING 107
SWIDTH 254 0
DWIDTH 26 0
BBX 30 42 -1 0
BITMAP
0000007C
000000FC
000001F8
000001F0
000003F0
000007E0
000007C0
00000FC0
00000F80
00001F00
00001F00
00003E00
00007E00
00007C00
0000F800
0000F800
0001F000
0003E000
0007E000
000FC000
001FC000
001F8000
003F0000
007F01E0
00FE0618
01FE0878
03FC10F8
037C20F8
06F8E0F0
0DFFC000
19FFC000
1BF32004
37F67004
07FCF00C
0FB0F018
1F81F030
1F01F060
3F01E0C0
7E01E180
7C01C300
7C01CC00
F8007800
ENDCHAR
STARTCHAR 006C
ENCODING 108
SWIDTH 156 0
DWIDTH 16 0
BBX 27 42 2 -2
BITMAP
000003E0
000007E0
000007C0
00000FC0
00001F80
00001F00
00003F00
00003E00
00007C00
00007C00
0000F800
0001F000
0001F000
0003E000
0007E000
0007C000
000F8000
000F8000
001F0000
003E0000
007E0000
00FC0000
01FC0000
03F80000
03F00000
07F00000
0DE00000
1BE00000
33C00000
37C00000
67800000
CF800000
9F00C000
9E018000
3E030000
3E060000
3C0E0000
3C1C0000
38380000
38700000
1FC00000
0F800000
ENDCHAR
STARTCHAR 006D
ENCODING 109
SWIDTH 441 0
DWIDTH 45 0
BBX 49 19 1 0
BITMAP
001C01F007C000
00E603B819C000
018F0E3821E000
020F1C7843E000
041F187887E000
1C1E20F907E000
183E40FA0FC000
303E81F41FC000
607F01FC1FC000
C0FF03F83F8080
C0FE03F03F0180
01FC07E07F0300
01F80FE07E0300
03F00FC07C0600
07E01F807C0C00
0FC03F00781000
0FC03E00706000
1F807E0031C000
1F007C001F0000
ENDCHAR
STARTCHAR 006E
ENCODING 110
SWIDTH 303 0
DWIDTH 31 0
BBX 33 19 2 -1
BITMAP
003803C000
00FC0FE000
03CE1EE000
070E38E000
0E1E71E000
1C3E63E000
383CC7E000
707D8FC000
E07F0FC000
C0FE1F8100
81FC1F0180
01FC3F0300
03F83E0600
07F03E0C00
07E03C1800
0FC03C3000
1F8038E000
3F801BC000
3F000F0000
ENDCHAR
STARTCHAR 006F
ENCODING 111
SWIDTH 196 0
DWIDTH 20 0
BBX 22 19 1 -2
BITMAP
000F80
003FC0
00FDE0
03F0E0
07E0E0
0FC0E0
1F80E0
3F81C0
7F01C0
FE0380
FE030C
FC0718
7C0670
780CE0
781FC0
783F00
78E000
3FC000
1F8000
ENDCHAR
STARTCHAR 0070
ENCODING 112
SWIDTH 303 0
DWIDTH 31 0
BBX 43 46 -8 -18
BITMAP
00000003C000
0000000F8000
0000001F8000
0000001F0000
0000003E0000
0000007E0000
000000FC0000
000001F80000
000003F80000
000003F00000
000007F00000
00000FE00000
00001FC1E000
000037C77000
00006F8C7000
00005F10F000
0000DF20F000
0001BE41F000
00037D83E000
00067F07E000
000CFE0FC060
000CFC0FC0C0
0009FC1F8080
0003F81F0100
0007F01F0600
0007E01E0C00
000FC01C1800
000F801C3000
001F001CE000
003F00078000
003E00000000
007C00000000
00FC00000000
00F800000000
01F000000000
03F000000000
03E000000000
07C000000000
0FC000000000
0F8000000000
1F0000000000
3F0000000000
3E0000000000
7C0000000000
F80000000000
F80000000000
ENDCHAR
STARTCHAR 0071
ENCODING 113
SWIDTH 254 0
DWIDTH 26 0
BBX 28 35 2 -16
BITMAP
000F87C0
007FCFC0
00F87F80
03F03F00
07E07E00
0FC07E00
3F807C00
7F00F800
FE01F800
FC01F010
FC03E030
F807E060
F80FC0C0
F01FC180
F03F8300
F0FF0600
71DF1800
7FBFE000
1E7E0000
007F0000
00F90000
01F90000
01F10000
03E30000
07E30000
07C30000
0F820000
1F860000
1F040000
1E080000
1E180000
1C100000
1C600000
1CC00000
07000000
ENDCHAR
STARTCHAR 0072
ENCODING 114
SWIDTH 225 0
DWIDTH 23 0
BBX 26 19 1 0
BITMAP
001C0FC0
007E0FC0
01EE1F80
038F1F00
070F3C00
0C1E3800
181E7000
383EF000
707DE000
607FC080
C0FEC180
81FE4300
01FC6E00
03F83800
07F00000
07E00000
0FC00000
0F800000
1F000000
ENDCHAR
STARTCHAR 0073
ENCODING 115
SWIDTH 156 0
DWIDTH 16 0
BBX 18 23 1 -1
BITMAP
001800
003800
003000
006000
006000
00E000
01A000
012000
033000
063000
0C3000
187000
107800
307800
2078C0
00F980
01F900
01F600
63FC00
77F800
EFF000
7FE000
3F0000
ENDCHAR
STARTCHAR 0074
ENCODING 116
SWIDTH 147 0
DWIDTH 15 0
BBX 23 29 1 -41
BITMAP
0000F0
0001F0
0003E0
0003C0
0007C0
000F80
000FFC
001FFE
003E00
007C00
00FC00
01F800
01F800
03F000
07E000
0FE000
0BC000
17C000
3F8000
6F0000
DF0100
BE0300
3E0600
3C0C00
781800
783000
386000
318000
1E0000
ENDCHAR
STARTCHAR 0075
ENCODING 117
SWIDTH 225 0
DWIDTH 23 0
BBX 26 18 1 0
BITMAP
03E01F00
07E03F00
0FC03E00
0FC07C00
1F80F800
3F01F800
3F03F000
7E07E000
FC07E000
FC0FC0C0
781FC1C0
78378180
F0778300
F0670600
E1C70C00
E3877800
7E07F000
3C03C000
ENDCHAR
STARTCHAR 0076
ENCODING 118
SWIDTH 245 0
DWIDTH 25 0
BBX 26 19 2 -1
BITMAP
00F80F00
01FC1F00
039C3F00
061C7F00
0C3C7300
183CE300
307CE200
6078C600
C0F98400
C1F98840
81F198C0
03E1B0C0
03E1E180
03C1FF00
03C3FE00
03879000
038F0000
01FE0000
01F80000
ENDCHAR
STARTCHAR 0077
ENCODING 119
SWIDTH 313 0
DWIDTH 32 0
BBX 35 19 1 -1
BITMAP
00F8078700
03F80F8F80
07F01F1F80
07E03F1F80
0FE03E3B00
1FC07E7300
3F80FC6300
7F81F86600
7F03F84600
FE03F0CC20
BE07F0DC60
7C0FE0F8C0
781DE0F180
7839C0F700
7071C0FC00
70E1838000
31C18F0000
3F80FE0000
1E00780000
ENDCHAR
STARTCHAR 0078
ENCODING 120
SWIDTH 274 0
DWIDTH 28 0
BBX 29 19 1 -1
BITMAP
000F01F0
003B87F0
00E3CCF8
0183D8F0
0303D0F0
0607E000
0C07C000
1807C000
300F8000
600F8008
001F8018
001F0030
003F0060
787E00C0
F8DE0180
F99E0600
F30C1C00
EE0E7000
7807C000
ENDCHAR
STARTCHAR 0079
ENCODING 121
SWIDTH 333 0
DWIDTH 34 0
BBX 40 41 -2 -23
BITMAP
00018001F8
000EE003F8
0018E003F0
0060E007E0
00C1F00FC0
0183E01F80
0307E03F80
0607E07F00
0C0FC0FE00
080FC1FE03
081F81FC07
003F02F80E
003F05F81C
003E09F038
003C13F070
003833E0E0
003867C180
001987C700
000F0F8C00
00000FF000
00001F8000
00007E0000
0003FE0000
000E7C0000
0038780000
0060780000
01C0F00000
0380E00000
0E01C00000
1C01C00000
3803800000
3803000000
7007000000
E00E000000
E00C000000
C018000000
C030000000
C060000000
C0C0000000
4100000000
3E00000000
ENDCHAR
STARTCHAR 007A
ENCODING 122
SWIDTH 294 0
DWIDTH 30 0
BBX 35 41 -3 -23
BITMAP
0000F80380
0001DC07C0
00073C0DC0
000E3C19C0
0008783380
0010782600
0020705800
006070E000
00C03F8000
0180010000
0100020020
0000020040
0000040080
00003E0100
0000D98200
000330C400
000361D800
0007C1E000
000701C000
000003C000
00000FC000
000017C000
00006F8000
00018F8000
00061F0000
00181F0000
00303E0000
00E07C0000
0180FC0000
0300F80000
0E01F00000
1C03E00000
1803C00000
3007800000
700F000000
601E000000
E01C000000
C030000000
C060000000
4180000000
7E00000000
ENDCHAR
STARTCHAR 00A0
ENCODING 160
SWIDTH 196 0
DWIDTH 20 0
BBX 0 0 0 0
BITMAP
ENDCHAR
STARTCHAR 2010
ENCODING 8208
SWIDTH 196 0
DWIDTH 20 0
BBX 15 8 2 8
BITMAP
001E
01FE
1FFC
7F80
703E
07FC
7F80
F000
ENDCHAR
STARTCHAR 2019
ENCODING 8217
SWIDTH 19 0
DWIDTH 2 0
BBX 8 9 1 21
BITMAP
0E
0F
0F
0F
0E
1C
38
F0
E0
ENDCHAR
STARTCHAR 2022
ENCODING 8226
SWIDTH 1627 0
DWIDTH 166 0
BBX 181 84 -4 -1
BITMAP
00000000000000FF000000000000FFF000000000000000
0000000000040FFF000000000000FFF1FFE00000000000
00000000003E0FFF000000000000FFF1FFE00000000000
00001F0001FE0FFF000000000000FFF1FFE00000000000
00003FFC0FFE0FFF000000000000FFF1FFE00000000000
0000FFFC1FFE0FFF000000000000FFF1FFE00000000000
0003FFFC3FFE0FFF080006000C00FFF1FFE00000000000
0007FFFC3FFE0FFF0E000F001E00FFF1FFC00000000000
001FFFFC3FFE0FFF1F800FC03F00FFE3FFC38000800000
003FFFFC1FFE0FFF3FC01FE07F80FFE3FFC3C001C00000
00BFFFFC1FFF8FFF3FF03FF8FFC0FFE3FFC7F001E00100
01BFFFFC7FFF8FFF7FFC3FF9FFE0FFE3FFCFF803F00380
0F9FFE707FFF8FFF7FFE7FF9FFE0FFE3FFDFFE07F80FC0
1F9FFE707FFF8FFFFFFE7FF9FFE0FFE3FFDFFF0FFE1FE0
1F9FFE707FFF8FFFFFFE7FF9FFE0FFE3FFFFFF8FFF3FF0
3F9FFE707FFF8FFFFFFE3FF9FFE0FFE3FFFFFF9FFE7FF8
3F8FFE707FFF0FFFFFFC3FF8FFC0FFE3FFFFFF9FFE7FF8
7F8FFE781FFE0FFF7FFC3FF8FFC0FFE3FFFFFF1FFE7FF8
7FCFFE781FFE0FFF3FFC3FF8FFC0FFE3FF9FFF0FFE7FF8
7FCFFF781FFE0FFF3FFC3FF9FFC0FFE3FF8FFF0FFE7FF8
FFE7FF381FFE07FF3FFC3FF9FFC0FFE3FF8FFF0FFC7FF0
7FE7FF381FFE07FF3FFC3FF9FFC0FFE3FF8FFF1FFC7FF0
7FF7FF381FFE07FF3FFC3FFDFFC1FFE3FF8FFF1FFC7FF0
7FFFFE381FFE07FF3FFC3FFFFFC1FFC3FF9FFE1FFC7FF0
7FFFF8381FFF07FF3FFC3FFFFFE1FFE3FF9FFE1FFC7FF0
7FFFE03B1FFF07FFFFFC3FFFFFE1FFF3FFDFFE1FFE7FF0
7FFFE03F1FFF87FFFFFC7FFFFFE1FFE7FFFFFE1FFFFFE0
3FFFFFFF1FFF8FFFFFFC7FFDFFE1FFE7FFFFFE1FFFFFE0
3FFFFFFF1FFF8FFFFFFC1FF8FFC1FFE7FFFFFE3FFFFFE0
1FFFFFFE0FFF0FFFFFFC0FF07FC1FFC7FFFFFE3FFFFFF0
1FFFFFFE1FFF07FF9FFC03F01F80FFC3FFFFFE1FFEFFF0
0FFFFFFC0FFF03FF1FF800E007803FC1FFDFFE0FFCFFF0
07FFFFF803FE00FE3FF0004001001F80FF1FFC03F87FE0
01FFFFF000FE007C3FF00000000007807E1FFC01F03FE0
007FFFC0003C00383FE00000000001003C3FF800E00FC0
001FFF00000C00087FC0000000000000083FF000200780
0000000000000000FF80000000000000007FE000000180
0000000000000001FC0000000000000000FFC000000000
0000000000000003E00000000000000001FE0000000000
000000000000000F000000000000000007E00000000000
000000000000001000000000000000001E0000C0000000
00000000000000000000040000000000000001C0000000
000000000000000000000E0070018000000001C0000000
000000000000000000001E00FC07C00000F001C0000000
000000000000000000001E00FFBFC00001F801C0000000
00000000000000E000003E077FFFC003FFF001C0000000
00000000380001F00C003E073FFF801FFFE003C0000000
00000000380001F00E003C073FFF007FFE0007C0000000
000000003C0001F00E007C0F1FFE00FFE00007C0000000
000000007C0001F80F00FC0F01FC00FFC00007C0000000
000000007E0001F80F00F80F000000FF800007C0000000
000000007E0001F80F81FC0F000000FF800007C0000000
000000007F0001F80F83F81F000000FF80000F80000000
000000007F0001F80FC7F81FF00000FFC0000F80000000
000000007F0001FC07CFF81FFFF8007F00000F80000000
000000007F0001FC07EFF81FFFF8007F80000F80000000
00000000FF0001FC07FFF81FFFF0003F80000F80000000
00000000FF0001FC03FFF83EFC00001FC0000F80000000
00000000FF0001FC03FFF03E7C00000FC0001F00000000
00000000FF0000FE01FFF03E00000007E0001F00000000
00000000FF0000FE01FFF03E00000001F0003F00000000
00000000FF0000FE01FFF03F00000000F8003F00000000
00000000FF0000FF03FFE03FE001C0007C003E00000000
00000000FF00007F00FFE03FFC03C0003F007E00000000
00000000FF00007F80FFE03FFF8380003F807E00000000
00000000FF00003F807FC03FFFFF80003FC07E00000000
00000000FFFFC03FC03FC03FFFFF80003FC0FE00000000
00000000FFFFF03FE03FC03FFFFF0000FFC0FE00000000
00000000FFFFF81FE01F801FFFFF0001FF81FC00000000
00000001FFFFFC1FF00F801FFFFF01F0EF01FC00000000
00000001FFFFFE0FF007000FFFFF82010E00FC00000000
00000001FFFFFE07F000000FFFFE3F800E007800000000
00000001FFFFFF03F000000FFC003FFF9C003800000000
00000001FFFFFF03E000000200003FFFF8041800000000
00000001FFFFFF800000000000003FFFF8050000000000
00000001FFFFFF800000000000001FFFF01F8000000000
00000000FFFFC7000000000000000FFFE01F8000000000
00000000FFFFC00000000000000003FC003FE000000000
00000000FFFFC0000000000000000000003FE000000000
00000000FF0600000000000000000000003FC000000000
000000007C0000000000000000000000001FF000000000
00000000380000000000000000000000002FC000000000
00000000000000000000000000000000020A8000000000
0000000000000000000000000000000000020000000000
ENDCHAR
ENDFONT
